<?xml version="1.0" encoding="UTF-8" standalone="no"?>
<!-- Created with Inkscape (http://www.inkscape.org/) -->

<svg
   xmlns:dc="http://purl.org/dc/elements/1.1/"
   xmlns:cc="http://creativecommons.org/ns#"
   xmlns:rdf="http://www.w3.org/1999/02/22-rdf-syntax-ns#"
   xmlns:svg="http://www.w3.org/2000/svg"
   xmlns="http://www.w3.org/2000/svg"
   xmlns:sodipodi="http://sodipodi.sourceforge.net/DTD/sodipodi-0.dtd"
   xmlns:inkscape="http://www.inkscape.org/namespaces/inkscape"
   width="160.00002"
   height="192.03572"
   id="svg2"
   version="1.1"
   inkscape:version="0.48.4 r9939"
   sodipodi:docname="tilesmap.svg"
   inkscape:export-filename="/home/greg/Dev/Projects/ninja/app/assets/black-tiles.png"
   inkscape:export-xdpi="90"
   inkscape:export-ydpi="90">
  <defs
     id="defs4" />
  <sodipodi:namedview
     id="base"
     pagecolor="#ffffff"
     bordercolor="#666666"
     borderopacity="1.0"
     inkscape:pageopacity="0"
     inkscape:pageshadow="2"
     inkscape:zoom="1.4"
     inkscape:cx="-80.497417"
     inkscape:cy="158.99371"
     inkscape:document-units="px"
     inkscape:current-layer="layer1"
     showgrid="true"
     inkscape:window-width="1920"
     inkscape:window-height="1022"
     inkscape:window-x="0"
     inkscape:window-y="29"
     inkscape:window-maximized="1"
     fit-margin-top="0"
     fit-margin-left="0"
     fit-margin-right="0"
     fit-margin-bottom="0">
    <inkscape:grid
       type="xygrid"
       id="grid3763"
       empspacing="5"
       visible="true"
       enabled="true"
       snapvisiblegridlinesonly="true"
       originx="0px"
       originy="1.1730957e-06px" />
  </sodipodi:namedview>
  <metadata
     id="metadata7">
    <rdf:RDF>
      <cc:Work
         rdf:about="">
        <dc:format>image/svg+xml</dc:format>
        <dc:type
           rdf:resource="http://purl.org/dc/dcmitype/StillImage" />
        <dc:title></dc:title>
      </cc:Work>
    </rdf:RDF>
  </metadata>
  <g
     inkscape:label="Calque 1"
     inkscape:groupmode="layer"
     id="layer1"
     transform="translate(0,-860.32646)">
    <rect
       style="fill:#000000;fill-rule:evenodd;stroke:none"
       id="rect2985"
       width="32"
       height="32"
       x="0"
       y="1020.3622" />
    <rect
       y="1036.3622"
       x="32"
       height="16"
       width="32"
       id="rect3755"
       style="fill:#000000;fill-rule:evenodd;stroke:none" />
    <rect
       style="fill:#000000;fill-rule:evenodd;stroke:none"
       id="rect3757"
       width="32"
       height="16"
       x="64"
       y="1020.3622" />
    <rect
       y="1020.3622"
       x="96"
       height="32"
       width="16"
       id="rect3759"
       style="fill:#000000;fill-rule:evenodd;stroke:none" />
    <rect
       style="fill:#000000;fill-rule:evenodd;stroke:none"
       id="rect3761"
       width="16"
       height="32"
       x="144"
       y="1020.3622" />
    <path
       style="fill:#000000;fill-rule:evenodd;stroke:none"
       d="m 64,988.36218 0,32.00002 -32,0 c 32,-32.00002 0,0 32,-32.00002 z"
       id="rect3031"
       inkscape:connector-curvature="0"
       sodipodi:nodetypes="cccc" />
    <path
       sodipodi:nodetypes="cccc"
       inkscape:connector-curvature="0"
       id="path3034"
       d="m 96.00001,1020.3622 -32.00002,0 0,-32.00001 c 32.00002,32.00001 0,0 32.00002,32.00001 z"
       style="fill:#000000;fill-rule:evenodd;stroke:none" />
    <path
       sodipodi:nodetypes="cccc"
       inkscape:connector-curvature="0"
       id="path3036"
       d="m 128.00001,1020.3622 0,-32.00002 32,0 c -32,32.00002 0,0 -32,32.00002 z"
       style="fill:#000000;fill-rule:evenodd;stroke:none" />
    <path
       style="fill:#000000;fill-rule:evenodd;stroke:none"
       d="m 96,988.36218 32.00002,0 0,32.00002 c -32.00002,-32.00002 0,0 -32.00002,-32.00002 z"
       id="path3038"
       inkscape:connector-curvature="0"
       sodipodi:nodetypes="cccc" />
    <path
       sodipodi:nodetypes="cccc"
       inkscape:connector-curvature="0"
       id="path3040"
       d="m 64,972.36218 0,16 -32,0 c 32,-16 0,0 32,-16 z"
       style="fill:#000000;fill-rule:evenodd;stroke:none" />
    <path
       style="fill:#000000;fill-rule:evenodd;stroke:none"
       d="m 96.00001,988.36218 -32.00002,0 0,-16 c 32.00002,16 0,0 32.00002,16 z"
       id="path3042"
       inkscape:connector-curvature="0"
       sodipodi:nodetypes="cccc" />
    <path
       style="fill:#000000;fill-rule:evenodd;stroke:none"
       d="m 128.00001,972.36218 0,-16 32,0 c -32,16 0,0 -32,16 z"
       id="path3044"
       inkscape:connector-curvature="0"
       sodipodi:nodetypes="cccc" />
    <path
       sodipodi:nodetypes="cccc"
       inkscape:connector-curvature="0"
       id="path3046"
       d="m 96,956.36218 32.00002,0 0,16 c -32.00002,-16 0,0 -32.00002,-16 z"
       style="fill:#000000;fill-rule:evenodd;stroke:none" />
    <g
       id="g3062"
       style="fill:#000000">
      <path
         sodipodi:nodetypes="cccc"
         inkscape:connector-curvature="0"
         id="path3054"
         d="m 96,940.36218 32.00002,0 0,16 c -32.00002,-16 0,0 -32.00002,-16 z"
         style="fill:#000000;fill-rule:evenodd;stroke:none" />
      <rect
         style="fill:#000000;fill-rule:evenodd;stroke:none"
         id="rect3056"
         width="32"
         height="16"
         x="96"
         y="924.36218" />
    </g>
    <g
       id="g3066"
       style="fill:#000000">
      <path
         style="fill:#000000;fill-rule:evenodd;stroke:none"
         d="m 128.00001,956.36218 0,-16 32,0 c -32,16 0,0 -32,16 z"
         id="path3052"
         inkscape:connector-curvature="0"
         sodipodi:nodetypes="cccc" />
      <rect
         y="924.36218"
         x="128"
         height="16"
         width="32"
         id="rect3060"
         style="fill:#000000;fill-rule:evenodd;stroke:none" />
    </g>
    <g
       id="g3070"
       transform="matrix(-1,0,0,-1,192.00001,1880.7244)"
       style="fill:#000000">
      <path
         style="fill:#000000;fill-rule:evenodd;stroke:none"
         d="m 96,940.36218 32.00002,0 0,16 c -32.00002,-16 0,0 -32.00002,-16 z"
         id="path3072"
         inkscape:connector-curvature="0"
         sodipodi:nodetypes="cccc" />
      <rect
         y="924.36218"
         x="96"
         height="16"
         width="32"
         id="rect3074"
         style="fill:#000000;fill-rule:evenodd;stroke:none" />
    </g>
    <g
       id="g3076"
       transform="matrix(-1,0,0,-1,192.00001,1880.7244)"
       style="fill:#000000">
      <path
         sodipodi:nodetypes="cccc"
         inkscape:connector-curvature="0"
         id="path3078"
         d="m 128.00001,956.36218 0,-16 32,0 c -32,16 0,0 -32,16 z"
         style="fill:#000000;fill-rule:evenodd;stroke:none" />
      <rect
         style="fill:#000000;fill-rule:evenodd;stroke:none"
         id="rect3080"
         width="32"
         height="16"
         x="128"
         y="924.36218" />
    </g>
    <path
       style="fill:#000000;fill-rule:evenodd;stroke:none"
       d="m 16.000005,892.32646 -15.9999995821697,0 0,-32 c 15.9999995821697,32 0,0 15.9999995821697,32 z"
       id="path3082"
       inkscape:connector-curvature="0"
       sodipodi:nodetypes="cccc" />
    <path
       sodipodi:nodetypes="cccc"
       inkscape:connector-curvature="0"
       id="path3084"
       d="m 5.4178303e-6,924.32647 0,-32.00002 15.9999995821697,0 c -15.9999995821697,32.00002 0,0 -15.9999995821697,32.00002 z"
       style="fill:#000000;fill-rule:evenodd;stroke:none" />
    <path
       sodipodi:nodetypes="cccc"
       inkscape:connector-curvature="0"
       id="path3086"
       d="m 16.000005,956.32649 16,0 0,32 c -16,-32 0,0 -16,-32 z"
       style="fill:#000000;fill-rule:evenodd;stroke:none" />
    <path
       style="fill:#000000;fill-rule:evenodd;stroke:none"
       d="m 32.000005,924.32646 0,32.00003 -16,0 c 16,-32.00003 0,0 16,-32.00003 z"
       id="path3088"
       inkscape:connector-curvature="0"
       sodipodi:nodetypes="cccc" />
    <g
       id="g3114"
       transform="matrix(0,1,-1,0,1052.3622,796.36213)"
       style="fill:#000000">
      <path
         style="fill:#000000;fill-rule:evenodd;stroke:none"
         d="m 96,940.36218 32.00002,0 0,16 c -32.00002,-16 0,0 -32.00002,-16 z"
         id="path3116"
         inkscape:connector-curvature="0"
         sodipodi:nodetypes="cccc" />
      <rect
         y="924.36218"
         x="96"
         height="16"
         width="32"
         id="rect3118"
         style="fill:#000000;fill-rule:evenodd;stroke:none" />
    </g>
    <g
       id="g3120"
       transform="matrix(0,1,-1,0,1084.3622,764.36214)"
       style="fill:#000000">
      <path
         sodipodi:nodetypes="cccc"
         inkscape:connector-curvature="0"
         id="path3122"
         d="m 128.00001,956.36218 0,-16 32,0 c -32,16 0,0 -32,16 z"
         style="fill:#000000;fill-rule:evenodd;stroke:none" />
      <rect
         style="fill:#000000;fill-rule:evenodd;stroke:none"
         id="rect3124"
         width="32"
         height="16"
         x="128"
         y="924.36218" />
    </g>
    <g
       transform="matrix(0,-1,1,0,-860.36218,1020.3622)"
       id="g3126"
       style="fill:#000000">
      <path
         sodipodi:nodetypes="cccc"
         inkscape:connector-curvature="0"
         id="path3128"
         d="m 96,940.36218 32.00002,0 0,16 c -32.00002,-16 0,0 -32.00002,-16 z"
         style="fill:#000000;fill-rule:evenodd;stroke:none" />
      <rect
         style="fill:#000000;fill-rule:evenodd;stroke:none"
         id="rect3130"
         width="32"
         height="16"
         x="96"
         y="924.36218" />
    </g>
    <g
       transform="matrix(0,-1,1,0,-892.36218,1052.3622)"
       id="g3132"
       style="fill:#000000">
      <path
         style="fill:#000000;fill-rule:evenodd;stroke:none"
         d="m 128.00001,956.36218 0,-16 32,0 c -32,16 0,0 -32,16 z"
         id="path3134"
         inkscape:connector-curvature="0"
         sodipodi:nodetypes="cccc" />
      <rect
         y="924.36218"
         x="128"
         height="16"
         width="32"
         id="rect3136"
         style="fill:#000000;fill-rule:evenodd;stroke:none" />
    </g>
  </g>
</svg>
